<mxfile host="app.diagrams.net" modified="2021-03-12T13:19:58.486Z" agent="5.0 (Windows NT 10.0; Win64; x64) AppleWebKit/537.36 (KHTML, like Gecko) Chrome/89.0.4389.82 Safari/537.36" etag="qxuZ-Fo_BWyz6O4nnhSu" version="14.4.7" type="github">
  <diagram id="C5RBs43oDa-KdzZeNtuy" name="Page-1">
    <mxGraphModel dx="1422" dy="1623" grid="1" gridSize="10" guides="1" tooltips="1" connect="1" arrows="1" fold="1" page="1" pageScale="1" pageWidth="1169" pageHeight="827" math="0" shadow="0">
      <root>
        <mxCell id="WIyWlLk6GJQsqaUBKTNV-0" />
        <mxCell id="WIyWlLk6GJQsqaUBKTNV-1" parent="WIyWlLk6GJQsqaUBKTNV-0" />
        <mxCell id="S-fZk5oJkQJXw3i7ZNJL-0" value="PacBio&amp;nbsp; Reads" style="shape=parallelogram;perimeter=parallelogramPerimeter;whiteSpace=wrap;html=1;fixedSize=1;" vertex="1" parent="WIyWlLk6GJQsqaUBKTNV-1">
          <mxGeometry x="170" y="130" width="120" height="60" as="geometry" />
        </mxCell>
        <mxCell id="S-fZk5oJkQJXw3i7ZNJL-1" value="Nanopore Reads" style="shape=parallelogram;perimeter=parallelogramPerimeter;whiteSpace=wrap;html=1;fixedSize=1;" vertex="1" parent="WIyWlLk6GJQsqaUBKTNV-1">
          <mxGeometry x="170" y="260" width="120" height="60" as="geometry" />
        </mxCell>
        <mxCell id="S-fZk5oJkQJXw3i7ZNJL-14" style="edgeStyle=orthogonalEdgeStyle;rounded=0;orthogonalLoop=1;jettySize=auto;html=1;exitX=1;exitY=0.5;exitDx=0;exitDy=0;entryX=0;entryY=0.5;entryDx=0;entryDy=0;" edge="1" parent="WIyWlLk6GJQsqaUBKTNV-1" source="S-fZk5oJkQJXw3i7ZNJL-2" target="S-fZk5oJkQJXw3i7ZNJL-7">
          <mxGeometry relative="1" as="geometry" />
        </mxCell>
        <mxCell id="S-fZk5oJkQJXw3i7ZNJL-2" value="10X Reads" style="shape=parallelogram;perimeter=parallelogramPerimeter;whiteSpace=wrap;html=1;fixedSize=1;" vertex="1" parent="WIyWlLk6GJQsqaUBKTNV-1">
          <mxGeometry x="170" y="393.97" width="120" height="60" as="geometry" />
        </mxCell>
        <mxCell id="S-fZk5oJkQJXw3i7ZNJL-3" value="Canu correct" style="shape=process;whiteSpace=wrap;html=1;backgroundOutline=1;" vertex="1" parent="WIyWlLk6GJQsqaUBKTNV-1">
          <mxGeometry x="340" y="130" width="120" height="60" as="geometry" />
        </mxCell>
        <mxCell id="S-fZk5oJkQJXw3i7ZNJL-13" style="edgeStyle=orthogonalEdgeStyle;rounded=0;orthogonalLoop=1;jettySize=auto;html=1;exitX=1;exitY=0.5;exitDx=0;exitDy=0;entryX=0;entryY=0.5;entryDx=0;entryDy=0;" edge="1" parent="WIyWlLk6GJQsqaUBKTNV-1" source="S-fZk5oJkQJXw3i7ZNJL-4" target="S-fZk5oJkQJXw3i7ZNJL-5">
          <mxGeometry relative="1" as="geometry" />
        </mxCell>
        <mxCell id="S-fZk5oJkQJXw3i7ZNJL-4" value="Canu correct" style="shape=process;whiteSpace=wrap;html=1;backgroundOutline=1;" vertex="1" parent="WIyWlLk6GJQsqaUBKTNV-1">
          <mxGeometry x="340" y="260" width="120" height="60" as="geometry" />
        </mxCell>
        <mxCell id="S-fZk5oJkQJXw3i7ZNJL-5" value="Corrected&lt;br&gt;Nanopore Reads&lt;br&gt;" style="shape=parallelogram;perimeter=parallelogramPerimeter;whiteSpace=wrap;html=1;fixedSize=1;" vertex="1" parent="WIyWlLk6GJQsqaUBKTNV-1">
          <mxGeometry x="510" y="260" width="120" height="60" as="geometry" />
        </mxCell>
        <mxCell id="S-fZk5oJkQJXw3i7ZNJL-6" value="Corrected&lt;br&gt;PacBio Reads" style="shape=parallelogram;perimeter=parallelogramPerimeter;whiteSpace=wrap;html=1;fixedSize=1;" vertex="1" parent="WIyWlLk6GJQsqaUBKTNV-1">
          <mxGeometry x="510" y="130" width="120" height="60" as="geometry" />
        </mxCell>
        <mxCell id="S-fZk5oJkQJXw3i7ZNJL-15" style="edgeStyle=orthogonalEdgeStyle;rounded=0;orthogonalLoop=1;jettySize=auto;html=1;exitX=1;exitY=0.5;exitDx=0;exitDy=0;" edge="1" parent="WIyWlLk6GJQsqaUBKTNV-1" source="S-fZk5oJkQJXw3i7ZNJL-7" target="S-fZk5oJkQJXw3i7ZNJL-8">
          <mxGeometry relative="1" as="geometry" />
        </mxCell>
        <mxCell id="S-fZk5oJkQJXw3i7ZNJL-7" value="Supernova&amp;nbsp;&lt;br&gt;" style="shape=process;whiteSpace=wrap;html=1;backgroundOutline=1;" vertex="1" parent="WIyWlLk6GJQsqaUBKTNV-1">
          <mxGeometry x="340" y="393.97" width="120" height="60" as="geometry" />
        </mxCell>
        <mxCell id="S-fZk5oJkQJXw3i7ZNJL-8" value="Multiple 10X assemblies" style="shape=parallelogram;perimeter=parallelogramPerimeter;whiteSpace=wrap;html=1;fixedSize=1;" vertex="1" parent="WIyWlLk6GJQsqaUBKTNV-1">
          <mxGeometry x="510" y="393.97" width="120" height="60" as="geometry" />
        </mxCell>
        <mxCell id="S-fZk5oJkQJXw3i7ZNJL-9" value="" style="endArrow=classic;html=1;exitX=1;exitY=0.5;exitDx=0;exitDy=0;entryX=0;entryY=0.5;entryDx=0;entryDy=0;" edge="1" parent="WIyWlLk6GJQsqaUBKTNV-1" source="S-fZk5oJkQJXw3i7ZNJL-0" target="S-fZk5oJkQJXw3i7ZNJL-3">
          <mxGeometry width="50" height="50" relative="1" as="geometry">
            <mxPoint x="500" y="340" as="sourcePoint" />
            <mxPoint x="550" y="290" as="targetPoint" />
          </mxGeometry>
        </mxCell>
        <mxCell id="S-fZk5oJkQJXw3i7ZNJL-10" value="" style="endArrow=classic;html=1;exitX=1;exitY=0.5;exitDx=0;exitDy=0;entryX=0;entryY=0.5;entryDx=0;entryDy=0;" edge="1" parent="WIyWlLk6GJQsqaUBKTNV-1" source="S-fZk5oJkQJXw3i7ZNJL-3" target="S-fZk5oJkQJXw3i7ZNJL-6">
          <mxGeometry width="50" height="50" relative="1" as="geometry">
            <mxPoint x="470" y="200" as="sourcePoint" />
            <mxPoint x="520" y="150" as="targetPoint" />
          </mxGeometry>
        </mxCell>
        <mxCell id="S-fZk5oJkQJXw3i7ZNJL-11" value="" style="endArrow=classic;html=1;exitX=1;exitY=0.5;exitDx=0;exitDy=0;entryX=0;entryY=0.5;entryDx=0;entryDy=0;" edge="1" parent="WIyWlLk6GJQsqaUBKTNV-1" source="S-fZk5oJkQJXw3i7ZNJL-1" target="S-fZk5oJkQJXw3i7ZNJL-4">
          <mxGeometry width="50" height="50" relative="1" as="geometry">
            <mxPoint x="300" y="300.00000000000006" as="sourcePoint" />
            <mxPoint x="360" y="300.00000000000006" as="targetPoint" />
          </mxGeometry>
        </mxCell>
        <mxCell id="S-fZk5oJkQJXw3i7ZNJL-17" style="edgeStyle=orthogonalEdgeStyle;rounded=0;orthogonalLoop=1;jettySize=auto;html=1;exitX=1;exitY=0.25;exitDx=0;exitDy=0;entryX=0.75;entryY=0;entryDx=0;entryDy=0;" edge="1" parent="WIyWlLk6GJQsqaUBKTNV-1" source="S-fZk5oJkQJXw3i7ZNJL-7" target="S-fZk5oJkQJXw3i7ZNJL-7">
          <mxGeometry relative="1" as="geometry">
            <Array as="points">
              <mxPoint x="470" y="408.97" />
              <mxPoint x="470" y="373.97" />
              <mxPoint x="430" y="373.97" />
            </Array>
          </mxGeometry>
        </mxCell>
        <mxCell id="S-fZk5oJkQJXw3i7ZNJL-22" value="&lt;h1&gt;&lt;i&gt;H schachti&lt;/i&gt;&lt;/h1&gt;&lt;p&gt;Genome size 170-180mb&lt;/p&gt;" style="text;html=1;strokeColor=none;fillColor=none;spacing=5;spacingTop=-20;whiteSpace=wrap;overflow=hidden;rounded=0;" vertex="1" parent="WIyWlLk6GJQsqaUBKTNV-1">
          <mxGeometry x="150" y="-40" width="190" height="120" as="geometry" />
        </mxCell>
        <mxCell id="S-fZk5oJkQJXw3i7ZNJL-23" value="" style="strokeWidth=2;html=1;shape=mxgraph.flowchart.annotation_2;align=left;labelPosition=right;pointerEvents=1;" vertex="1" parent="WIyWlLk6GJQsqaUBKTNV-1">
          <mxGeometry x="130" y="130" width="30" height="190" as="geometry" />
        </mxCell>
        <mxCell id="S-fZk5oJkQJXw3i7ZNJL-24" value="Long-read" style="text;html=1;strokeColor=none;fillColor=none;align=center;verticalAlign=middle;whiteSpace=wrap;rounded=0;" vertex="1" parent="WIyWlLk6GJQsqaUBKTNV-1">
          <mxGeometry x="30" y="215" width="70" height="20" as="geometry" />
        </mxCell>
        <mxCell id="S-fZk5oJkQJXw3i7ZNJL-25" value="" style="strokeWidth=2;html=1;shape=mxgraph.flowchart.annotation_2;align=left;labelPosition=right;pointerEvents=1;" vertex="1" parent="WIyWlLk6GJQsqaUBKTNV-1">
          <mxGeometry x="130" y="390" width="30" height="70" as="geometry" />
        </mxCell>
        <mxCell id="S-fZk5oJkQJXw3i7ZNJL-26" value="Short-read" style="text;html=1;strokeColor=none;fillColor=none;align=center;verticalAlign=middle;whiteSpace=wrap;rounded=0;" vertex="1" parent="WIyWlLk6GJQsqaUBKTNV-1">
          <mxGeometry x="30" y="413" width="70" height="20" as="geometry" />
        </mxCell>
      </root>
    </mxGraphModel>
  </diagram>
</mxfile>
